<svg xmlns="http://www.w3.org/2000/svg" xmlns:xlink="http://www.w3.org/1999/xlink" width="500" zoomAndPan="magnify" viewBox="0 0 375 374.999991" height="500" preserveAspectRatio="xMidYMid meet" version="1.0"><defs><clipPath id="35b4b4b316"><path d="M 62.613281 0 L 292.863281 0 L 292.863281 375 L 62.613281 375 Z M 62.613281 0 " clip-rule="nonzero"/></clipPath></defs><g clip-path="url(#35b4b4b316)"><path fill="#c4c0c0" d="M 246.980469 4.277344 L 292.621094 4.277344 C 289.640625 10.796875 274.738281 41.90625 247.539062 97.605469 C 236.175781 120.890625 228.167969 138.585938 223.324219 150.511719 C 221.089844 155.355469 218.667969 160.757812 215.871094 166.53125 L 184.578125 233.59375 C 185.878906 245.328125 186.8125 255.945312 187.371094 265.820312 C 187.929688 275.691406 188.117188 284.632812 188.117188 292.644531 C 188.117188 317.417969 186.253906 336.421875 182.714844 350.019531 C 180.105469 359.519531 176.753906 366.039062 172.65625 369.578125 C 168.554688 373.117188 163.898438 374.980469 159.054688 374.980469 C 153.09375 374.980469 147.691406 372.371094 143.035156 367.34375 C 138.378906 362.3125 136.144531 355.609375 136.144531 347.785156 C 136.144531 333.8125 138.9375 317.605469 144.527344 299.351562 C 150.113281 281.09375 158.496094 260.601562 169.675781 237.878906 C 156.449219 144.734375 145.828125 88.476562 137.820312 69.289062 C 129.996094 49.917969 119.003906 40.417969 104.847656 40.417969 C 96.277344 40.417969 89.570312 43.023438 84.730469 48.242188 C 79.886719 53.457031 76.160156 65.191406 73.550781 83.261719 L 62.933594 83.261719 C 62.746094 77.859375 62.746094 73.761719 62.746094 70.96875 C 62.746094 45.820312 67.589844 27.003906 77.464844 14.152344 C 84.914062 4.652344 94.972656 -0.0078125 107.457031 -0.0078125 C 118.445312 -0.0078125 127.203125 3.347656 134.28125 9.867188 C 143.78125 19.179688 152.164062 39.300781 159.613281 70.410156 C 169.113281 110.832031 176.378906 154.796875 181.78125 202.296875 L 205.8125 121.265625 C 216.246094 84.378906 230.03125 45.632812 246.980469 4.277344 Z M 246.980469 4.277344 " fill-opacity="1" fill-rule="nonzero"/></g></svg>